<svg width="538" height="347" viewBox="0 0 538 347" fill="none" xmlns="http://www.w3.org/2000/svg">
<rect width="538" height="347" rx="8" fill="#CE181E"/>
<path d="M409.266 323L410.07 320.734H413.305L414.109 323H415.125L412.188 315H411.188L408.25 323H409.266ZM410.375 319.875L411.656 316.266H411.719L413 319.875H410.375ZM416.246 325.25H417.168V322.078H417.246C417.449 322.406 417.84 323.125 418.996 323.125C420.496 323.125 421.543 321.922 421.543 320.016C421.543 318.125 420.496 316.922 418.98 316.922C417.809 316.922 417.449 317.641 417.246 317.953H417.137V317H416.246V325.25ZM417.152 320C417.152 318.656 417.746 317.75 418.871 317.75C420.043 317.75 420.621 318.734 420.621 320C420.621 321.281 420.027 322.297 418.871 322.297C417.762 322.297 417.152 321.359 417.152 320ZM423.871 315H422.949V323H423.871V315ZM425.56 323H426.481V317H425.56V323ZM426.028 316C426.388 316 426.685 315.719 426.685 315.375C426.685 315.031 426.388 314.75 426.028 314.75C425.669 314.75 425.372 315.031 425.372 315.375C425.372 315.719 425.669 316 426.028 316ZM430.607 323.125C431.936 323.125 432.811 322.312 432.967 321.25H432.045C431.873 321.906 431.326 322.297 430.607 322.297C429.514 322.297 428.811 321.391 428.811 320C428.811 318.641 429.529 317.75 430.607 317.75C431.42 317.75 431.904 318.25 432.045 318.797H432.967C432.811 317.672 431.857 316.922 430.592 316.922C428.967 316.922 427.889 318.203 427.889 320.031C427.889 321.828 428.92 323.125 430.607 323.125ZM436.08 323.141C437.127 323.141 437.674 322.578 437.861 322.187H437.908V323H438.83V319.047C438.83 317.141 437.377 316.922 436.611 316.922C435.705 316.922 434.674 317.234 434.205 318.328L435.08 318.641C435.283 318.203 435.764 317.734 436.643 317.734C437.49 317.734 437.908 318.184 437.908 318.953V318.984C437.908 319.43 437.455 319.391 436.361 319.531C435.248 319.676 434.033 319.922 434.033 321.297C434.033 322.469 434.939 323.141 436.08 323.141ZM436.221 322.312C435.486 322.312 434.955 321.984 434.955 321.344C434.955 320.641 435.596 320.422 436.314 320.328C436.705 320.281 437.752 320.172 437.908 319.984V320.828C437.908 321.578 437.314 322.312 436.221 322.312ZM443.251 323.109C444.411 322.996 445.165 322.23 445.31 321.25H444.388C444.216 321.906 443.669 322.297 442.95 322.297C441.856 322.297 441.153 321.391 441.153 320C441.153 318.641 441.872 317.75 442.95 317.75C443.763 317.75 444.247 318.25 444.388 318.797H445.31C445.153 317.672 444.2 316.922 442.935 316.922C441.31 316.922 440.231 318.203 440.231 320.031C440.231 321.656 441.075 322.875 442.489 323.09L442.356 323.734C442.95 323.781 443.2 323.875 443.2 324.234C443.2 324.594 442.841 324.734 442.356 324.734L442.388 325.344C443.466 325.344 444.028 324.875 444.028 324.203C444.028 323.594 443.622 323.344 443.216 323.281L443.251 323.109ZM448.423 323.141C449.47 323.141 450.017 322.578 450.204 322.187H450.251V323H451.173V319.047C451.173 317.141 449.72 316.922 448.954 316.922C448.048 316.922 447.017 317.234 446.548 318.328L447.423 318.641C447.626 318.203 448.106 317.734 448.985 317.734C449.833 317.734 450.251 318.184 450.251 318.953V318.984C450.251 319.43 449.798 319.391 448.704 319.531C447.591 319.676 446.376 319.922 446.376 321.297C446.376 322.469 447.282 323.141 448.423 323.141ZM448.563 322.312C447.829 322.312 447.298 321.984 447.298 321.344C447.298 320.641 447.938 320.422 448.657 320.328C449.048 320.281 450.095 320.172 450.251 319.984V320.828C450.251 321.578 449.657 322.312 448.563 322.312ZM447.813 316.281C447.813 315.953 448.032 315.687 448.329 315.687C448.923 315.687 449.032 316.187 449.751 316.187C450.423 316.187 450.938 315.672 450.938 314.859L450.235 314.797C450.235 315.125 450.001 315.391 449.704 315.391C449.142 315.391 448.876 314.891 448.282 314.891C447.61 314.891 447.095 315.453 447.095 316.25L447.813 316.281ZM455.293 323.125C456.918 323.125 458.012 321.891 458.012 320.031C458.012 318.156 456.918 316.922 455.293 316.922C453.668 316.922 452.574 318.156 452.574 320.031C452.574 321.891 453.668 323.125 455.293 323.125ZM455.293 322.297C454.059 322.297 453.496 321.234 453.496 320.031C453.496 318.828 454.059 317.75 455.293 317.75C456.527 317.75 457.09 318.828 457.09 320.031C457.09 321.234 456.527 322.297 455.293 322.297ZM468.981 315H468.028V321.297H467.95L463.575 315H462.638V323H463.606V316.719H463.685L468.044 323H468.981V315ZM473.311 323.125C474.529 323.125 475.42 322.516 475.701 321.609L474.811 321.359C474.576 321.984 474.033 322.297 473.311 322.297C472.229 322.297 471.482 321.598 471.439 320.312H475.795V319.922C475.795 317.687 474.467 316.922 473.217 316.922C471.592 316.922 470.514 318.203 470.514 320.047C470.514 321.891 471.576 323.125 473.311 323.125ZM471.439 319.516C471.502 318.582 472.162 317.75 473.217 317.75C474.217 317.75 474.857 318.5 474.857 319.516H471.439ZM479.619 325.375C481.057 325.375 482.213 324.719 482.213 323.172V317H481.322V317.953H481.229C481.025 317.641 480.65 316.922 479.479 316.922C477.963 316.922 476.916 318.125 476.916 319.969C476.916 321.844 478.01 322.906 479.463 322.906C480.635 322.906 481.01 322.219 481.213 321.891H481.291V323.109C481.291 324.109 480.588 324.562 479.619 324.562C478.529 324.562 478.146 323.988 477.9 323.656L477.166 324.172C477.541 324.801 478.279 325.375 479.619 325.375ZM479.588 322.078C478.432 322.078 477.838 321.203 477.838 319.953C477.838 318.734 478.416 317.75 479.588 317.75C480.713 317.75 481.307 318.656 481.307 319.953C481.307 321.281 480.697 322.078 479.588 322.078ZM485.666 323.141C486.713 323.141 487.26 322.578 487.447 322.187H487.494V323H488.416V319.047C488.416 317.141 486.963 316.922 486.197 316.922C485.291 316.922 484.26 317.234 483.791 318.328L484.666 318.641C484.869 318.203 485.35 317.734 486.229 317.734C487.076 317.734 487.494 318.184 487.494 318.953V318.984C487.494 319.43 487.041 319.391 485.947 319.531C484.834 319.676 483.619 319.922 483.619 321.297C483.619 322.469 484.525 323.141 485.666 323.141ZM485.807 322.312C485.072 322.312 484.541 321.984 484.541 321.344C484.541 320.641 485.182 320.422 485.9 320.328C486.291 320.281 487.338 320.172 487.494 319.984V320.828C487.494 321.578 486.9 322.312 485.807 322.312ZM492.708 317H491.427V315.562H490.505V317H489.599V317.781H490.505V321.531C490.505 322.578 491.349 323.078 492.13 323.078C492.474 323.078 492.692 323.016 492.817 322.969L492.63 322.141C492.552 322.156 492.427 322.187 492.224 322.187C491.817 322.187 491.427 322.062 491.427 321.281V317.781H492.708V317ZM494.095 323H495.017V317H494.095V323ZM494.563 316C494.923 316 495.22 315.719 495.22 315.375C495.22 315.031 494.923 314.75 494.563 314.75C494.204 314.75 493.907 315.031 493.907 315.375C493.907 315.719 494.204 316 494.563 316ZM501.611 317H500.611L498.955 321.781H498.893L497.236 317H496.236L498.455 323H499.393L501.611 317ZM504.411 323.141C505.458 323.141 506.005 322.578 506.192 322.187H506.239V323H507.161V319.047C507.161 317.141 505.708 316.922 504.942 316.922C504.036 316.922 503.005 317.234 502.536 318.328L503.411 318.641C503.614 318.203 504.095 317.734 504.974 317.734C505.821 317.734 506.239 318.184 506.239 318.953V318.984C506.239 319.43 505.786 319.391 504.692 319.531C503.579 319.676 502.364 319.922 502.364 321.297C502.364 322.469 503.271 323.141 504.411 323.141ZM504.552 322.312C503.817 322.312 503.286 321.984 503.286 321.344C503.286 320.641 503.927 320.422 504.646 320.328C505.036 320.281 506.083 320.172 506.239 319.984V320.828C506.239 321.578 505.646 322.312 504.552 322.312Z" fill="white"/>
<path d="M365.818 124.201L402.052 104.133C402.793 103.811 403.458 103.338 404.006 102.745C404.553 102.151 404.971 101.45 405.232 100.686C405.494 99.9218 405.593 99.1117 405.523 98.3072C405.454 97.5027 405.217 96.7215 404.829 96.0135C404.44 95.3056 403.909 94.6864 403.267 94.1956C402.626 93.7048 401.889 93.3532 401.105 93.1631C400.32 92.9731 399.504 92.9488 398.709 93.0918C397.915 93.2349 397.158 93.5421 396.489 93.9939L396.245 94.1449L360.243 114.074L365.818 124.201Z" fill="white"/>
<path d="M403.295 106.908L367.292 126.825L372.89 136.964L409.171 116.896C410.408 116.098 411.295 114.859 411.654 113.432C412.013 112.004 411.816 110.494 411.103 109.206C410.391 107.918 409.216 106.948 407.815 106.494C406.415 106.039 404.895 106.133 403.562 106.757L403.306 106.908" fill="white"/>
<path d="M418.473 121.785C417.727 120.447 416.482 119.457 415.009 119.033C413.536 118.609 411.955 118.784 410.611 119.521L410.356 119.672L374.354 139.589L379.986 149.716L416.22 129.659C417.557 128.911 418.544 127.665 418.966 126.192C419.388 124.719 419.211 123.14 418.473 121.797" fill="white"/>
<path d="M407.313 138.009L407.058 138.16L374.063 156.405C368.625 159.36 362.239 160.041 356.299 158.3C350.36 156.559 345.352 152.538 342.37 147.114C339.502 141.714 338.827 135.416 340.483 129.531C342.14 123.645 346.002 118.625 351.266 115.514L351.626 115.316L371.613 104.26C372.392 103.966 373.099 103.507 373.685 102.916C374.272 102.324 374.724 101.613 375.011 100.831C375.299 100.049 375.414 99.2149 375.351 98.3843C375.287 97.5538 375.045 96.7466 374.642 96.0177C374.239 95.2888 373.684 94.6551 373.014 94.1598C372.344 93.6644 371.576 93.319 370.761 93.1468C369.946 92.9747 369.103 92.9799 368.291 93.1622C367.478 93.3444 366.714 93.6994 366.05 94.203L365.795 94.3424L346.052 105.259C338.223 109.88 332.503 117.369 330.106 126.137C327.709 134.905 328.822 144.263 333.211 152.224C337.599 160.184 344.917 166.122 353.611 168.776C362.305 171.43 371.691 170.592 379.777 166.439L380.579 165.986L412.922 148.09C413.652 147.759 414.306 147.28 414.841 146.684C415.377 146.087 415.783 145.387 416.035 144.626C416.287 143.865 416.378 143.06 416.303 142.262C416.229 141.464 415.99 140.69 415.601 139.989C415.213 139.288 414.684 138.675 414.047 138.188C413.41 137.702 412.679 137.352 411.901 137.162C411.122 136.972 410.313 136.945 409.523 137.082C408.734 137.22 407.981 137.52 407.313 137.963" fill="white"/>
<path d="M295.904 209.479C295.363 210.355 294.61 211.08 293.715 211.587C292.82 212.095 291.811 212.368 290.782 212.383C290.169 212.421 289.555 212.325 288.982 212.103C288.41 211.881 287.892 211.537 287.465 211.096C287.037 210.654 286.711 210.125 286.508 209.546C286.305 208.966 286.23 208.349 286.288 207.737C286.288 202.627 293.419 201.721 297.286 201.315V202.697C297.286 205.182 297.356 207.261 295.904 209.468V209.479ZM307.669 196.472C307.669 192.245 308.005 188.343 304.417 185.474C301.583 183.151 296.88 182.292 293.279 182.292C285.882 182.292 277.578 184.777 276.544 193.29L286.149 194.184C286.149 190.7 288.994 189.074 292.246 189.074C293.012 189.035 293.778 189.163 294.49 189.45C295.202 189.737 295.843 190.175 296.369 190.735C297.402 192.059 297.263 193.847 297.263 195.38V196.217C292.977 196.635 287.38 196.902 283.327 198.435C278.681 200.154 275.441 203.684 275.441 208.887C275.441 215.53 280.284 218.84 286.509 218.84C291.77 218.84 294.812 216.842 297.716 212.685C297.636 214.522 297.8 216.361 298.204 218.155H308.296C307.796 216.447 307.565 214.672 307.61 212.894L307.669 196.472Z" fill="white"/>
<path d="M122.096 218.131H155.984V208.933H133.163V198.411H151.141V189.492H133.163V179.876H155.984V170.678H122.096V218.131Z" fill="white"/>
<path d="M200.731 182.303C196.376 182.303 192.299 184.243 190.499 188.389C188.421 184.243 185.517 182.303 180.883 182.303C176.249 182.303 172.928 184.243 171.128 188.389H171V182.989H161.314V218.131H171.476V199.55C171.476 195.74 171.267 190.491 176.598 190.491C181.929 190.491 181.162 195.88 181.162 199.55V218.131H191.324V199.55C191.324 197.68 191.324 194.904 192.021 193.255C192.436 192.427 193.075 191.733 193.865 191.25C194.656 190.768 195.566 190.517 196.492 190.526C198.64 190.526 200.301 191.153 200.847 193.371C201.092 195.413 201.162 197.472 201.056 199.526V218.108H211.23V196.205C211.23 192.721 211.706 188.668 209.36 185.892C208.269 184.715 206.939 183.785 205.458 183.166C203.977 182.547 202.381 182.253 200.777 182.303" fill="white"/>
<path d="M233.586 211.732C232.721 211.741 231.869 211.521 231.117 211.094C230.364 210.668 229.738 210.051 229.3 209.305C228.369 207.494 227.967 205.457 228.139 203.428V198.342C228.139 194.614 228.824 189.283 233.737 189.283C239.346 189.283 239.346 196.623 239.346 200.56C239.346 204.497 239.346 211.697 233.539 211.697L233.586 211.732ZM236.791 182.303C235.015 182.197 233.248 182.628 231.719 183.539C230.191 184.451 228.972 185.8 228.22 187.413H227.941V170.678H217.814V218.131H223.354C223.981 216.261 224.388 214.252 225.677 212.731C228.243 216.958 230.659 218.816 235.711 218.816C246.291 218.816 249.961 209.758 249.961 200.56C249.961 192.256 246.918 182.303 236.884 182.303" fill="white"/>
<path d="M265.012 189.562H264.873V182.989H255.373V218.131H265.547V204.764C265.547 198.539 266.51 192.245 274.257 192.663V182.443L272.526 182.303C268.102 181.955 266.023 185.787 264.989 189.562" fill="white"/>
<path d="M330.629 190.049C334.287 190.049 335.948 193.162 335.948 196.344L345.633 195.787C344.948 187.553 338.445 182.303 330.28 182.303C319.213 182.303 312.709 190.119 312.709 200.885C312.709 211.256 319.004 218.793 329.653 218.793C338.236 218.793 344.809 213.613 345.633 204.857L335.948 204.311C335.611 207.563 333.811 210.396 330.211 210.396C324.404 210.396 324.334 204.311 324.334 200.014C324.334 195.519 325.019 189.991 330.629 189.991" fill="white"/>
<path d="M365.969 212.046C360.162 212.046 360.232 203.463 360.232 199.457C360.232 195.45 360.58 189.004 366.038 189.004C367.087 188.907 368.137 189.17 369.017 189.748C369.897 190.326 370.554 191.186 370.881 192.186C371.748 195.009 372.14 197.957 372.043 200.908C372.043 205.124 371.764 212.046 366.027 212.046H365.969ZM366.027 182.303C355.307 182.303 349.361 190.259 349.361 200.49C349.361 210.722 355.238 218.816 366.027 218.816C376.398 218.816 382.971 210.861 382.971 200.839C382.971 190.468 377.025 182.257 366.027 182.257" fill="white"/>
<path d="M416.743 186.182C415.719 184.889 414.397 183.862 412.891 183.189C411.385 182.516 409.738 182.216 408.091 182.315C402.97 182.315 400.066 184.452 397.999 188.958H397.86V182.988H388.244V218.131H398.406V199.247C398.264 197.108 398.663 194.967 399.567 193.023C399.975 192.237 400.589 191.577 401.345 191.114C402.1 190.652 402.967 190.404 403.852 190.398C408.962 190.398 408.498 195.647 408.498 199.247V218.131H418.66V196.414C418.66 193.232 418.66 188.807 416.732 186.171" fill="white"/>
<path d="M134.94 158.414C136.923 158.43 138.885 158.012 140.69 157.192C142.495 156.372 144.1 155.168 145.392 153.664L142.222 150.912C141.332 151.967 140.214 152.806 138.953 153.365C137.691 153.924 136.319 154.189 134.94 154.141C133.71 154.179 132.484 153.965 131.339 153.512C130.195 153.059 129.155 152.376 128.284 151.505C127.414 150.635 126.731 149.595 126.278 148.45C125.824 147.306 125.611 146.08 125.649 144.85C125.613 143.617 125.828 142.389 126.281 141.241C126.734 140.094 127.416 139.05 128.285 138.174C129.154 137.299 130.192 136.609 131.336 136.148C132.48 135.686 133.707 135.462 134.94 135.489C136.305 135.454 137.66 135.723 138.908 136.278C140.155 136.832 141.264 137.658 142.152 138.695L145.392 135.919C144.111 134.404 142.508 133.195 140.7 132.379C138.891 131.563 136.923 131.162 134.94 131.204C133.116 131.165 131.303 131.487 129.605 132.153C127.906 132.819 126.357 133.815 125.045 135.083C123.729 136.335 122.689 137.848 121.993 139.527C121.296 141.205 120.96 143.01 121.004 144.827C120.961 146.641 121.299 148.444 121.995 150.12C122.691 151.796 123.73 153.308 125.045 154.559C127.705 157.099 131.262 158.485 134.94 158.414Z" fill="white"/>
<path d="M163.219 152.712C162.09 153.799 160.583 154.407 159.015 154.407C157.447 154.407 155.94 153.799 154.811 152.712C153.717 151.566 153.12 150.034 153.15 148.45C153.129 147.67 153.265 146.893 153.55 146.167C153.835 145.441 154.264 144.779 154.811 144.223C155.926 143.108 157.438 142.481 159.015 142.481C160.592 142.481 162.104 143.108 163.219 144.223C163.779 144.772 164.22 145.431 164.514 146.158C164.807 146.886 164.948 147.666 164.926 148.45C164.946 149.239 164.805 150.024 164.512 150.757C164.218 151.49 163.778 152.155 163.219 152.712ZM169.409 148.45C169.437 147.11 169.182 145.78 168.662 144.546C168.142 143.311 167.368 142.2 166.39 141.284C165.42 140.334 164.27 139.587 163.008 139.086C161.745 138.585 160.396 138.342 159.038 138.369C157.679 138.342 156.328 138.585 155.063 139.086C153.799 139.586 152.647 140.334 151.675 141.284C150.719 142.217 149.96 143.331 149.441 144.562C148.922 145.793 148.655 147.114 148.655 148.45C148.655 149.785 148.922 151.107 149.441 152.338C149.96 153.568 150.719 154.683 151.675 155.615C152.648 156.565 153.8 157.31 155.064 157.809C156.329 158.307 157.68 158.549 159.038 158.519C160.395 158.549 161.744 158.307 163.007 157.808C164.269 157.31 165.419 156.564 166.39 155.615C167.367 154.699 168.141 153.588 168.661 152.354C169.181 151.119 169.436 149.789 169.409 148.45Z" fill="white"/>
<path d="M178.956 147.01C178.931 146.424 179.028 145.839 179.241 145.292C179.454 144.746 179.779 144.249 180.193 143.835C180.608 143.42 181.105 143.096 181.651 142.883C182.198 142.67 182.783 142.572 183.369 142.597C183.925 142.561 184.482 142.648 185.001 142.851C185.52 143.053 185.989 143.367 186.374 143.77C186.759 144.172 187.051 144.654 187.23 145.182C187.409 145.71 187.471 146.27 187.41 146.824V157.962H191.94V146.185C191.94 141.47 189.257 138.567 184.727 138.567C183.567 138.484 182.407 138.73 181.38 139.276C180.353 139.823 179.501 140.648 178.921 141.656V138.939H174.426V157.962H178.956V147.01Z" fill="white"/>
<path d="M206.724 146.754C205.969 146.487 204.912 146.104 204.401 145.953C203.872 145.763 203.356 145.538 202.856 145.279C202.602 145.162 202.385 144.976 202.232 144.742C202.078 144.508 201.992 144.235 201.985 143.955C201.985 142.933 202.891 142.26 204.308 142.26C205.006 142.214 205.704 142.334 206.346 142.61C206.988 142.887 207.556 143.312 208.001 143.851L210.428 141.168C209.702 140.242 208.764 139.505 207.692 139.018C206.621 138.531 205.448 138.308 204.273 138.369C202.544 138.329 200.853 138.877 199.477 139.925C198.866 140.423 198.383 141.058 198.066 141.779C197.749 142.5 197.607 143.285 197.654 144.072C197.654 146.789 199.268 148.334 202.299 149.425C202.938 149.692 204.064 150.029 204.622 150.227C205.235 150.406 205.83 150.643 206.399 150.935C206.7 151.064 206.961 151.273 207.153 151.539C207.346 151.805 207.462 152.118 207.49 152.445C207.49 153.606 206.468 154.524 204.099 154.524C203.13 154.571 202.164 154.379 201.286 153.963C200.409 153.548 199.648 152.923 199.07 152.143L196.167 154.593C197.328 156.974 200.209 158.449 204.018 158.449C209.186 158.449 211.834 155.917 211.834 152.41C211.834 149.692 210.243 147.997 206.735 146.754" fill="white"/>
<path d="M245.885 141.772V138.938H241.39V157.962H245.885V147.962C245.833 147.271 245.932 146.577 246.176 145.929C246.42 145.28 246.802 144.693 247.296 144.208C247.791 143.722 248.385 143.35 249.038 143.118C249.69 142.886 250.386 142.799 251.076 142.864C251.707 142.868 252.337 142.93 252.957 143.05V138.671C252.489 138.592 252.015 138.557 251.54 138.567C250.387 138.485 249.235 138.746 248.229 139.316C247.223 139.886 246.407 140.741 245.885 141.772Z" fill="white"/>
<path d="M266.255 158.484C267.687 158.518 269.11 158.242 270.426 157.677C271.743 157.112 272.922 156.27 273.885 155.209L271.086 152.294C270.476 152.966 269.729 153.499 268.896 153.857C268.062 154.216 267.162 154.392 266.255 154.373C265.479 154.391 264.708 154.25 263.989 153.958C263.27 153.667 262.618 153.231 262.074 152.677C261.005 151.516 260.411 149.994 260.411 148.415C260.411 146.836 261.005 145.315 262.074 144.153C262.616 143.596 263.267 143.157 263.986 142.863C264.706 142.569 265.478 142.427 266.255 142.446C267.161 142.43 268.061 142.607 268.894 142.965C269.727 143.323 270.474 143.855 271.086 144.525L273.885 141.621C272.924 140.557 271.745 139.712 270.429 139.145C269.112 138.578 267.688 138.301 266.255 138.335C264.898 138.308 263.55 138.55 262.288 139.049C261.026 139.547 259.875 140.291 258.903 141.238C257.957 142.181 257.207 143.301 256.695 144.535C256.183 145.769 255.919 147.091 255.919 148.427C255.919 149.763 256.183 151.085 256.695 152.319C257.207 153.552 257.957 154.673 258.903 155.616C259.876 156.56 261.027 157.3 262.289 157.793C263.552 158.285 264.9 158.52 266.255 158.484Z" fill="white"/>
<path d="M280.783 131.355C280.253 131.355 279.734 131.512 279.293 131.807C278.852 132.102 278.508 132.521 278.305 133.011C278.102 133.501 278.049 134.041 278.152 134.561C278.256 135.081 278.511 135.56 278.886 135.935C279.262 136.31 279.74 136.565 280.26 136.669C280.78 136.772 281.32 136.719 281.81 136.516C282.3 136.313 282.719 135.969 283.014 135.528C283.309 135.087 283.466 134.568 283.466 134.038C283.466 133.326 283.183 132.644 282.68 132.141C282.177 131.638 281.495 131.355 280.783 131.355Z" fill="white"/>
<path d="M283.048 138.938H278.519V157.961H283.048V138.938Z" fill="white"/>
<path d="M302.663 152.712C301.533 153.799 300.027 154.407 298.459 154.407C296.891 154.407 295.384 153.799 294.255 152.712C293.16 151.566 292.564 150.034 292.594 148.45C292.573 147.67 292.709 146.894 292.994 146.167C293.279 145.441 293.708 144.78 294.255 144.223C295.373 143.114 296.884 142.491 298.459 142.491C300.034 142.491 301.545 143.114 302.663 144.223C303.221 144.773 303.66 145.432 303.952 146.159C304.244 146.887 304.382 147.667 304.359 148.45C304.38 149.238 304.241 150.023 303.949 150.756C303.658 151.488 303.22 152.154 302.663 152.712ZM298.482 138.37C297.123 138.34 295.771 138.583 294.506 139.084C293.242 139.585 292.09 140.333 291.119 141.285C290.163 142.217 289.404 143.331 288.885 144.562C288.366 145.793 288.099 147.115 288.099 148.45C288.099 149.786 288.366 151.107 288.885 152.338C289.404 153.569 290.163 154.683 291.119 155.616C293.115 157.48 295.745 158.518 298.476 158.518C301.208 158.518 303.837 157.48 305.833 155.616C306.789 154.683 307.549 153.569 308.068 152.338C308.586 151.107 308.854 149.786 308.854 148.45C308.854 147.115 308.586 145.793 308.068 144.562C307.549 143.331 306.789 142.217 305.833 141.285C304.864 140.334 303.714 139.587 302.452 139.086C301.189 138.586 299.84 138.342 298.482 138.37Z" fill="white"/>
<path d="M231.251 131.657H226.118L224.539 136.151H228.243L231.251 131.657Z" fill="white"/>
<path d="M221.74 144.223C222.858 143.113 224.369 142.491 225.944 142.491C227.519 142.491 229.03 143.113 230.148 144.223C230.708 144.772 231.149 145.431 231.443 146.158C231.736 146.886 231.877 147.666 231.855 148.45C231.878 149.237 231.741 150.021 231.452 150.754C231.162 151.487 230.726 152.153 230.171 152.712C229.042 153.799 227.535 154.407 225.967 154.407C224.399 154.407 222.893 153.799 221.763 152.712C220.669 151.566 220.072 150.034 220.102 148.45C220.081 147.67 220.217 146.894 220.502 146.167C220.788 145.441 221.216 144.78 221.763 144.223H221.74ZM225.99 158.519C227.347 158.549 228.697 158.307 229.959 157.808C231.221 157.31 232.371 156.564 233.342 155.616C234.298 154.683 235.057 153.569 235.576 152.338C236.095 151.107 236.362 149.785 236.362 148.45C236.362 147.115 236.095 145.793 235.576 144.562C235.057 143.331 234.298 142.217 233.342 141.284C231.35 139.412 228.719 138.37 225.985 138.37C223.251 138.37 220.62 139.412 218.627 141.284C217.672 142.217 216.912 143.331 216.393 144.562C215.875 145.793 215.607 147.115 215.607 148.45C215.607 149.785 215.875 151.107 216.393 152.338C216.912 153.569 217.672 154.683 218.627 155.616C219.6 156.565 220.752 157.31 222.016 157.809C223.281 158.307 224.632 158.549 225.99 158.519Z" fill="white"/>
<path d="M127.852 245.892C127.673 245.99 127.475 246.046 127.271 246.055H125.123V243.535H127.26C127.466 243.537 127.669 243.589 127.852 243.686C128.177 243.813 128.374 244.22 128.374 244.847C128.396 245.059 128.359 245.274 128.267 245.466C128.174 245.659 128.031 245.822 127.852 245.939V245.892ZM127.399 240.713H121.952V252.326H125.123V248.958H127.445C128.497 248.951 129.505 248.534 130.256 247.797C130.66 247.414 130.977 246.948 131.183 246.43C131.39 245.913 131.482 245.357 131.452 244.801C131.474 244.206 131.361 243.614 131.121 243.069C130.882 242.524 130.523 242.04 130.07 241.653C129.324 241.015 128.38 240.654 127.399 240.631" fill="white"/>
<path d="M140.999 248.761C140.628 249.121 140.176 249.385 139.68 249.529C139.184 249.673 138.66 249.694 138.155 249.589C137.649 249.484 137.177 249.257 136.779 248.927C136.382 248.597 136.071 248.175 135.875 247.697C135.679 247.22 135.602 246.701 135.653 246.187C135.703 245.673 135.879 245.179 136.165 244.749C136.45 244.319 136.837 243.965 137.291 243.719C137.745 243.473 138.253 243.342 138.769 243.337C139.187 243.33 139.601 243.412 139.985 243.576C140.37 243.74 140.715 243.983 140.999 244.29C141.302 244.576 141.544 244.921 141.708 245.305C141.871 245.689 141.954 246.102 141.951 246.519C141.953 246.938 141.87 247.353 141.706 247.738C141.542 248.124 141.302 248.472 140.999 248.761ZM138.769 240.492C137.933 240.472 137.102 240.618 136.322 240.921C135.543 241.224 134.831 241.678 134.228 242.257C133.644 242.801 133.179 243.459 132.86 244.19C132.542 244.921 132.377 245.71 132.377 246.508C132.377 247.305 132.542 248.094 132.86 248.826C133.179 249.557 133.644 250.215 134.228 250.758C135.45 251.92 137.083 252.551 138.769 252.512C140.455 252.551 142.088 251.92 143.31 250.758C143.905 250.222 144.38 249.566 144.704 248.834C145.029 248.101 145.194 247.309 145.191 246.508C145.2 245.706 145.036 244.912 144.712 244.178C144.387 243.445 143.909 242.79 143.31 242.257C142.707 241.678 141.995 241.224 141.216 240.921C140.436 240.618 139.605 240.472 138.769 240.492Z" fill="white"/>
<path d="M151.579 246.136H149.814V243.535H151.846C152.004 243.534 152.161 243.567 152.307 243.629C152.453 243.692 152.584 243.784 152.693 243.899C152.802 244.014 152.886 244.151 152.94 244.3C152.994 244.449 153.017 244.607 153.007 244.766C153.025 244.95 153.002 245.136 152.94 245.311C152.877 245.485 152.777 245.644 152.646 245.775C152.515 245.906 152.356 246.006 152.182 246.069C152.007 246.131 151.821 246.154 151.637 246.136H151.579ZM156.155 244.673C156.172 244.145 156.077 243.62 155.877 243.132C155.677 242.643 155.376 242.203 154.993 241.839C154.601 241.459 154.137 241.161 153.629 240.961C153.121 240.762 152.578 240.666 152.032 240.678H146.643V252.291H149.814V248.621H150.975L153.298 252.245H157.002L154.111 247.948C154.722 247.64 155.233 247.164 155.583 246.576C155.933 245.987 156.107 245.311 156.085 244.626" fill="white"/>
<path d="M166.49 247.82L165.213 246.392L163.122 248.192L164.365 249.562C164.112 249.608 163.855 249.627 163.598 249.621C163.184 249.627 162.773 249.551 162.388 249.398C162.004 249.244 161.653 249.016 161.357 248.726C160.916 248.284 160.616 247.721 160.495 247.108C160.374 246.495 160.438 245.86 160.678 245.283C160.918 244.707 161.323 244.214 161.843 243.868C162.363 243.521 162.974 243.337 163.598 243.338C164.43 243.352 165.223 243.688 165.812 244.275C166.401 244.862 166.739 245.654 166.757 246.485C166.777 246.945 166.686 247.403 166.49 247.82ZM168.128 242.246C166.886 241.125 165.272 240.504 163.598 240.504C161.925 240.504 160.311 241.125 159.069 242.246C158.489 242.789 158.026 243.446 157.71 244.175C157.394 244.904 157.231 245.69 157.231 246.485C157.231 247.28 157.394 248.066 157.71 248.795C158.026 249.524 158.489 250.181 159.069 250.724C160.297 251.867 161.921 252.488 163.598 252.454C164.581 252.465 165.553 252.254 166.444 251.839L167.466 253L169.545 251.188L168.592 250.12C169.504 249.144 170.007 247.855 169.997 246.52C170.007 245.721 169.845 244.929 169.523 244.197C169.2 243.466 168.724 242.812 168.128 242.281" fill="white"/>
<path d="M178.592 246.949C178.592 248.877 177.86 249.586 176.536 249.586C175.212 249.586 174.492 248.877 174.492 246.949V240.667H171.322V247.286C171.275 247.998 171.383 248.712 171.64 249.378C171.897 250.044 172.295 250.646 172.808 251.142C173.868 251.991 175.185 252.454 176.542 252.454C177.9 252.454 179.217 251.991 180.276 251.142C180.789 250.646 181.188 250.044 181.444 249.378C181.701 248.712 181.81 247.998 181.762 247.286V240.667H178.592V246.949Z" fill="white"/>
<path d="M186.71 247.716H191.738V245.114H186.71V243.523H192.11V240.667H183.539V252.292H192.238V249.493H186.71V247.716Z" fill="white"/>
<path d="M204.734 245.417C204.065 245.172 203.383 244.967 202.69 244.801C202.49 244.755 202.296 244.688 202.109 244.604C201.963 244.566 201.835 244.477 201.748 244.354C201.661 244.231 201.62 244.08 201.633 243.93C201.633 243.523 202.086 243.222 202.899 243.222C203.297 243.202 203.693 243.274 204.058 243.434C204.422 243.593 204.745 243.834 205.001 244.139L207.092 242.351C206.575 241.718 205.914 241.22 205.164 240.896C204.414 240.573 203.597 240.434 202.783 240.492C201.724 240.453 200.683 240.776 199.833 241.41C199.446 241.712 199.138 242.103 198.936 242.55C198.734 242.997 198.643 243.487 198.672 243.976C198.683 244.755 198.954 245.507 199.442 246.113C199.931 246.72 200.608 247.145 201.366 247.321C201.912 247.53 202.748 247.774 203.201 247.913L203.875 248.146C204.328 248.331 204.525 248.541 204.525 248.866C204.525 249.412 204.014 249.702 202.98 249.702C202.401 249.724 201.825 249.605 201.301 249.356C200.778 249.108 200.322 248.736 199.972 248.273L197.743 249.992C198.233 250.721 198.89 251.322 199.659 251.746C200.653 252.254 201.761 252.498 202.876 252.454C205.965 252.454 207.521 251.026 207.521 248.773C207.521 247.193 206.708 246.137 204.699 245.417" fill="white"/>
<path d="M216.975 248.761C216.532 249.202 215.969 249.502 215.356 249.622C214.743 249.743 214.108 249.68 213.532 249.44C212.955 249.2 212.462 248.795 212.116 248.275C211.77 247.755 211.585 247.144 211.586 246.519C211.58 246.103 211.66 245.69 211.822 245.306C211.984 244.922 212.224 244.576 212.527 244.29C212.811 243.983 213.156 243.74 213.54 243.576C213.924 243.412 214.339 243.33 214.757 243.337C215.176 243.332 215.592 243.414 215.977 243.577C216.363 243.741 216.711 243.984 216.998 244.29C217.298 244.578 217.536 244.924 217.698 245.308C217.859 245.691 217.941 246.103 217.939 246.519C217.94 246.937 217.858 247.351 217.696 247.736C217.535 248.121 217.297 248.469 216.998 248.761H216.975ZM214.733 240.492C213.897 240.472 213.066 240.618 212.287 240.921C211.507 241.224 210.796 241.678 210.192 242.257C209.609 242.801 209.143 243.459 208.825 244.19C208.506 244.921 208.342 245.71 208.342 246.508C208.342 247.305 208.506 248.094 208.825 248.826C209.143 249.557 209.609 250.215 210.192 250.758C211.436 251.886 213.055 252.511 214.733 252.511C216.412 252.511 218.031 251.886 219.274 250.758C219.869 250.222 220.344 249.566 220.669 248.834C220.993 248.101 221.159 247.309 221.156 246.508C221.164 245.706 221 244.912 220.676 244.178C220.351 243.445 219.873 242.79 219.274 242.257C218.671 241.678 217.959 241.224 217.18 240.921C216.401 240.618 215.569 240.472 214.733 240.492Z" fill="white"/>
<path d="M230.318 246.903L225.441 240.667H222.607V252.292H225.65V245.8L230.771 252.292H233.349V240.667H230.318V246.903Z" fill="white"/>
<path d="M242.803 244.708H238.425V240.667H235.254V252.292H238.425V247.6H242.803V252.292H245.962V240.667H242.803V244.708Z" fill="white"/>
<path d="M251.804 248.32L253.209 244.72L254.614 248.32H251.804ZM251.804 240.667L247.065 252.28H250.399L251.026 250.759H255.485L256.089 252.28H259.445L254.707 240.667H251.804Z" fill="white"/>
<path d="M265.391 246.136H263.626V243.535H265.659C265.817 243.535 265.974 243.567 266.12 243.629C266.265 243.692 266.397 243.784 266.505 243.899C266.614 244.015 266.698 244.151 266.752 244.3C266.806 244.449 266.829 244.608 266.82 244.766C266.838 244.95 266.815 245.137 266.752 245.311C266.69 245.485 266.589 245.644 266.458 245.775C266.327 245.906 266.169 246.006 265.995 246.069C265.82 246.131 265.634 246.154 265.449 246.136H265.391ZM269.967 244.673C269.986 244.145 269.892 243.62 269.692 243.131C269.492 242.642 269.19 242.202 268.806 241.839C268.417 241.459 267.955 241.16 267.448 240.96C266.942 240.761 266.4 240.665 265.856 240.678H260.572V252.292H263.742V248.622H264.904L267.226 252.245H270.815L267.912 247.948C268.526 247.643 269.04 247.168 269.392 246.579C269.745 245.99 269.92 245.312 269.897 244.627" fill="white"/>
<path d="M284.507 246.903L279.641 240.667H276.808V252.292H279.839V245.8L284.96 252.292H287.55V240.667H284.507V246.903Z" fill="white"/>
<path d="M293.392 248.32L294.785 244.72L296.19 248.32H293.392ZM293.334 240.667L288.595 252.28H291.94L292.555 250.759H297.027L297.619 252.28H301.01L296.272 240.667H293.334Z" fill="white"/>
<path d="M293.369 239.331C293.805 239.374 294.23 239.496 294.623 239.691C295.098 239.922 295.617 240.048 296.144 240.063C297.573 240.063 298.409 239.192 298.641 237.473L297.004 237.206C296.888 237.682 296.644 237.914 296.272 237.914C295.834 237.871 295.409 237.744 295.018 237.543C294.557 237.318 294.055 237.192 293.543 237.171C292.891 237.183 292.268 237.447 291.807 237.909C291.346 238.37 291.081 238.992 291.069 239.645L292.707 239.912C292.71 239.829 292.729 239.748 292.765 239.674C292.8 239.599 292.85 239.533 292.912 239.478C292.974 239.424 293.047 239.383 293.125 239.357C293.204 239.332 293.287 239.323 293.369 239.331Z" fill="white"/>
<path d="M309.465 248.761C309.095 249.121 308.642 249.385 308.146 249.529C307.65 249.673 307.127 249.694 306.621 249.589C306.115 249.484 305.643 249.257 305.246 248.927C304.848 248.597 304.538 248.175 304.341 247.697C304.145 247.22 304.069 246.701 304.119 246.187C304.17 245.673 304.345 245.179 304.631 244.749C304.917 244.319 305.303 243.965 305.757 243.719C306.211 243.473 306.719 243.342 307.235 243.337C307.653 243.33 308.067 243.412 308.452 243.576C308.836 243.74 309.181 243.983 309.465 244.29C309.769 244.576 310.01 244.921 310.174 245.305C310.338 245.689 310.421 246.102 310.417 246.519C310.419 246.938 310.336 247.353 310.172 247.738C310.009 248.124 309.768 248.472 309.465 248.761ZM307.235 240.492C306.399 240.472 305.568 240.618 304.788 240.921C304.009 241.224 303.297 241.678 302.694 242.257C302.11 242.801 301.645 243.459 301.326 244.19C301.008 244.921 300.844 245.71 300.844 246.508C300.844 247.305 301.008 248.094 301.326 248.826C301.645 249.557 302.11 250.215 302.694 250.758C303.938 251.886 305.556 252.511 307.235 252.511C308.914 252.511 310.533 251.886 311.776 250.758C312.371 250.222 312.846 249.566 313.171 248.834C313.495 248.101 313.661 247.309 313.658 246.508C313.666 245.706 313.502 244.912 313.178 244.178C312.853 243.445 312.375 242.79 311.776 242.257C311.173 241.678 310.461 241.224 309.682 240.921C308.903 240.618 308.071 240.472 307.235 240.492Z" fill="white"/>
<path d="M317.583 243.535H320.718V252.292H323.889V243.535H326.955V240.667H317.583V243.535Z" fill="white"/>
<path d="M331.159 247.716H336.199V245.114H331.159V243.523H336.571V240.667H327.988V252.292H336.698V249.493H331.159V247.716Z" fill="white"/>
<path d="M344.689 245.951L340.926 240.667H338.325V252.292H341.251V246.136L344.689 250.886L348.127 246.136V252.292H351.065V240.667H348.463L344.689 245.951Z" fill="white"/>
<path d="M361.145 240.667H357.975V252.292H365.57V249.423H361.145V240.667Z" fill="white"/>
<path d="M370.087 240.667H366.917V252.292H370.087V240.667Z" fill="white"/>
<path d="M378.426 245.951L374.663 240.667H372.062V252.292H374.989V246.136L378.426 250.886L381.864 246.136V252.292H384.802V240.667H382.201L378.426 245.951Z" fill="white"/>
<path d="M389.947 240.667H386.776V252.292H389.947V240.667Z" fill="white"/>
<path d="M391.05 243.535H394.174V252.292H397.345V243.535H400.422V240.667H391.05V243.535Z" fill="white"/>
<path d="M404.627 247.716H409.667V245.114H404.627V243.523H410.027V240.667H401.456V252.292H410.166V249.493H404.627V247.716Z" fill="white"/>
<path d="M417.819 245.416C417.15 245.172 416.468 244.966 415.775 244.801C415.572 244.754 415.374 244.688 415.183 244.603C415.039 244.563 414.914 244.474 414.829 244.351C414.744 244.227 414.705 244.078 414.719 243.93C414.719 243.523 415.171 243.221 415.984 243.221C416.382 243.202 416.778 243.275 417.143 243.434C417.507 243.594 417.83 243.835 418.086 244.139L420.177 242.35C419.659 241.719 418.998 241.221 418.248 240.897C417.499 240.574 416.683 240.435 415.868 240.492C414.809 240.452 413.768 240.776 412.918 241.409C412.521 241.705 412.202 242.094 411.989 242.541C411.777 242.988 411.677 243.481 411.699 243.976C411.709 244.753 411.979 245.504 412.465 246.11C412.951 246.716 413.626 247.142 414.382 247.321C414.939 247.53 415.775 247.774 416.217 247.913L416.902 248.145C417.355 248.331 417.552 248.54 417.552 248.865C417.552 249.411 417.041 249.701 416.008 249.701C415.445 249.705 414.889 249.577 414.385 249.327C413.88 249.077 413.442 248.712 413.104 248.261L410.863 249.98C411.359 250.704 412.015 251.304 412.779 251.734C413.777 252.241 414.889 252.485 416.008 252.442C419.085 252.442 420.653 251.014 420.653 248.761C420.653 247.181 419.84 246.125 417.831 245.404" fill="white"/>
</svg>
